<?xml version="1.0" encoding="UTF-8" standalone="no"?>
<!-- Created with Inkscape (http://www.inkscape.org/) -->
<svg sodipodi:docname="kassi.svg" width="210mm" height="297mm" viewBox="0 0 210 297" version="1.1" id="svg5" inkscape:version="1.2 (dc2aedaf03, 2022-05-15)" xmlns:inkscape="http://www.inkscape.org/namespaces/inkscape" xmlns:sodipodi="http://sodipodi.sourceforge.net/DTD/sodipodi-0.dtd" xmlns:xlink="http://www.w3.org/1999/xlink" xmlns="http://www.w3.org/2000/svg" xmlns:svg="http://www.w3.org/2000/svg">
  <sodipodi:namedview id="namedview7" pagecolor="#ffffff" bordercolor="#666666" borderopacity="1.0" inkscape:showpageshadow="2" inkscape:pageopacity="0.0" inkscape:pagecheckerboard="0" inkscape:deskcolor="#d1d1d1" inkscape:document-units="mm" showgrid="false" inkscape:zoom="0.83972969" inkscape:cx="634.72806" inkscape:cy="491.2295" inkscape:window-width="1920" inkscape:window-height="991" inkscape:window-x="-9" inkscape:window-y="-9" inkscape:window-maximized="1" inkscape:current-layer="layer1"/>
  <defs id="defs2">
    <linearGradient id="linearGradient6757" inkscape:swatch="solid">
      <stop style="stop-color:#000000;stop-opacity:1;" offset="0" id="stop6755"/>
    </linearGradient>
    <linearGradient id="linearGradient1987" inkscape:swatch="solid">
      <stop style="stop-color:#000000;stop-opacity:1;" offset="0" id="stop1985"/>
    </linearGradient>
    <linearGradient id="linearGradient1981" inkscape:swatch="solid">
      <stop style="stop-color:#000000;stop-opacity:1;" offset="0" id="stop1979"/>
    </linearGradient>
    <linearGradient inkscape:collect="always" xlink:href="#linearGradient1981" id="linearGradient1983" x1="295.4514" y1="138.02431" x2="321.02779" y2="138.02431" gradientUnits="userSpaceOnUse" gradientTransform="matrix(0.85681838,0,0,0.85681833,83.781024,38.641104)"/>
    <linearGradient inkscape:collect="always" xlink:href="#linearGradient1981" id="linearGradient5419" gradientUnits="userSpaceOnUse" gradientTransform="matrix(0.85681838,0,0,0.85681833,41.974615,39.648487)" x1="295.4514" y1="138.02431" x2="321.02779" y2="138.02431"/>
    <linearGradient inkscape:collect="always" xlink:href="#linearGradient1981" id="linearGradient5443" gradientUnits="userSpaceOnUse" gradientTransform="matrix(0.85681838,0,0,0.85681833,41.806718,-3.836894)" x1="295.4514" y1="138.02431" x2="321.02779" y2="138.02431"/>
    <linearGradient inkscape:collect="always" xlink:href="#linearGradient1981" id="linearGradient5445" gradientUnits="userSpaceOnUse" gradientTransform="matrix(0.85681838,0,0,0.85681833,83.613127,-4.844277)" x1="295.4514" y1="138.02431" x2="321.02779" y2="138.02431"/>
    <linearGradient inkscape:collect="always" xlink:href="#linearGradient6757" id="linearGradient6759" x1="91.671883" y1="48.43835" x2="101.07413" y2="48.43835" gradientUnits="userSpaceOnUse" gradientTransform="matrix(2.1171245,0,0,1.2018776,-105.22692,-4.5450548)"/>
    <linearGradient inkscape:collect="always" xlink:href="#linearGradient1981" id="linearGradient6812" gradientUnits="userSpaceOnUse" gradientTransform="matrix(0.10891614,0,0,0.10891613,132.92773,0.46692851)" x1="295.4514" y1="138.02431" x2="321.02779" y2="138.02431"/>
    <linearGradient inkscape:collect="always" xlink:href="#linearGradient1981" id="linearGradient6845" gradientUnits="userSpaceOnUse" gradientTransform="matrix(0.10891621,0,0,0.1089162,127.9277,0.4669195)" x1="295.4514" y1="138.02431" x2="321.02779" y2="138.02431"/>
    <linearGradient inkscape:collect="always" xlink:href="#linearGradient1981" id="linearGradient6852" gradientUnits="userSpaceOnUse" gradientTransform="matrix(0.10891614,0,0,0.10891613,127.92773,5.4669288)" x1="295.4514" y1="138.02431" x2="321.02779" y2="138.02431"/>
    <linearGradient inkscape:collect="always" xlink:href="#linearGradient1981" id="linearGradient6854" gradientUnits="userSpaceOnUse" gradientTransform="matrix(0.10891614,0,0,0.10891613,132.92773,5.4669287)" x1="295.4514" y1="138.02431" x2="321.02779" y2="138.02431"/>
    <linearGradient inkscape:collect="always" xlink:href="#linearGradient1981" id="linearGradient6868" gradientUnits="userSpaceOnUse" gradientTransform="matrix(0.10891614,0,0,0.10891613,142.66577,5.4669287)" x1="295.4514" y1="138.02431" x2="321.02779" y2="138.02431"/>
    <linearGradient inkscape:collect="always" xlink:href="#linearGradient1981" id="linearGradient6870" gradientUnits="userSpaceOnUse" gradientTransform="matrix(0.10891621,0,0,0.1089162,137.66574,0.4669195)" x1="295.4514" y1="138.02431" x2="321.02779" y2="138.02431"/>
    <linearGradient inkscape:collect="always" xlink:href="#linearGradient1981" id="linearGradient6872" gradientUnits="userSpaceOnUse" gradientTransform="matrix(0.10891614,0,0,0.10891613,137.66577,5.4669288)" x1="295.4514" y1="138.02431" x2="321.02779" y2="138.02431"/>
    <linearGradient inkscape:collect="always" xlink:href="#linearGradient1981" id="linearGradient6874" gradientUnits="userSpaceOnUse" gradientTransform="matrix(0.10891614,0,0,0.10891613,142.66577,0.46692851)" x1="295.4514" y1="138.02431" x2="321.02779" y2="138.02431"/>
    <linearGradient inkscape:collect="always" xlink:href="#linearGradient1981" id="linearGradient7199" gradientUnits="userSpaceOnUse" gradientTransform="matrix(0.10891614,0,0,0.10891613,142.66577,9.8780704)" x1="295.4514" y1="138.02431" x2="321.02779" y2="138.02431"/>
    <linearGradient inkscape:collect="always" xlink:href="#linearGradient1981" id="linearGradient7201" gradientUnits="userSpaceOnUse" gradientTransform="matrix(0.10891614,0,0,0.10891613,137.66577,9.8780705)" x1="295.4514" y1="138.02431" x2="321.02779" y2="138.02431"/>
    <linearGradient inkscape:collect="always" xlink:href="#linearGradient1981" id="linearGradient7203" gradientUnits="userSpaceOnUse" gradientTransform="matrix(0.10891614,0,0,0.10891613,127.92773,9.8780705)" x1="295.4514" y1="138.02431" x2="321.02779" y2="138.02431"/>
    <linearGradient inkscape:collect="always" xlink:href="#linearGradient1981" id="linearGradient7205" gradientUnits="userSpaceOnUse" gradientTransform="matrix(0.10891614,0,0,0.10891613,132.92773,9.8780704)" x1="295.4514" y1="138.02431" x2="321.02779" y2="138.02431"/>
  </defs>
  <g inkscape:label="Layer 1" inkscape:groupmode="layer" id="layer1">
    <g id="panel2021">
      <path style="fill:none;stroke:#000000;stroke-width:1" d="M 76.35 200.8 L 94.1125 200.8 L 94.1125 197.7 L 109.263 197.7 L 109.263 200.8 L 126.95 200.8 L 126.95 197.7 L 142.1 197.7 L 142.1 200.8 L 159.787 200.8 L 159.787 197.7 L 174.938 197.7 L 174.938 200.8 L 192.7 200.8" id="path703"/>
      <path style="fill:none;stroke:#000000;stroke-width:1" d="M 192.7 200.8 L 192.7 223.45 L 189.6 223.45 L 189.6 238.3 L 192.7 238.3 L 192.7 260.95" id="path705"/>
      <path style="fill:none;stroke:#000000;stroke-width:1" d="M 192.7 260.95 L 174.938 260.95 L 174.938 264.05 L 159.787 264.05 L 159.787 260.95 L 142.1 260.95 L 142.1 264.05 L 126.95 264.05 L 126.95 260.95 L 109.262 260.95 L 109.262 264.05 L 94.1125 264.05 L 94.1125 260.95 L 76.35 260.95" id="path707"/>
      <path style="fill:none;stroke:#000000;stroke-width:1" d="M 76.35 260.95 L 76.35 238.3 L 79.45 238.3 L 79.45 223.45 L 76.35 223.45 L 76.35 200.8" id="path709"/>
    </g>
    <g id="panel1931">
      <path style="fill:none;stroke:#000000;stroke-width:1" d="M 8.1 79.45 L 30.6 79.45 L 30.6 76.35 L 45.75 76.35 L 45.75 79.45 L 68.25 79.45" id="path742"/>
      <path style="fill:none;stroke:#000000;stroke-width:1" d="M 68.25 79.45 L 68.25 94.1125 L 71.35 94.1125 L 71.35 109.263 L 68.25 109.263 L 68.25 126.95 L 71.35 126.95 L 71.35 142.1 L 68.25 142.1 L 68.25 159.787 L 71.35 159.787 L 71.35 174.938 L 68.25 174.938 L 68.25 189.6" id="path744"/>
      <path style="fill:none;stroke:#000000;stroke-width:1" d="M 68.25 189.6 L 45.75 189.6 L 45.75 192.7 L 30.6 192.7 L 30.6 189.6 L 8.1 189.6" id="path746"/>
      <path style="fill:none;stroke:#000000;stroke-width:1" d="M 8.1 189.6 L 8.1 174.938 L 5 174.938 L 5 159.787 L 8.1 159.787 L 8.1 142.1 L 5 142.1 L 5 126.95 L 8.1 126.95 L 8.1 109.262 L 5 109.262 L 5 94.1125 L 8.1 94.1125 L 8.1 79.45" id="path748"/>
    </g>
    <g id="panel2127">
      <path style="fill:none;stroke:#000000;stroke-width:1" d="M 76.35 76.35 L 94.2625 76.35 L 94.2625 79.45 L 109.112 79.45 L 109.112 76.35 L 127.1 76.35 L 127.1 79.45 L 141.95 79.45 L 141.95 76.35 L 159.938 76.35 L 159.938 79.45 L 174.787 79.45 L 174.787 76.35 L 192.7 76.35" id="path790"/>
      <path style="fill:none;stroke:#000000;stroke-width:1" d="M 192.7 76.35 L 192.7 94.2625 L 189.6 94.2625 L 189.6 109.112 L 192.7 109.112 L 192.7 127.1 L 189.6 127.1 L 189.6 141.95 L 192.7 141.95 L 192.7 159.938 L 189.6 159.938 L 189.6 174.787 L 192.7 174.787 L 192.7 192.7" id="path792"/>
      <path style="fill:none;stroke:#000000;stroke-width:1" d="M 192.7 192.7 L 174.787 192.7 L 174.787 189.6 L 159.938 189.6 L 159.938 192.7 L 141.95 192.7 L 141.95 189.6 L 127.1 189.6 L 127.1 192.7 L 109.112 192.7 L 109.112 189.6 L 94.2625 189.6 L 94.2625 192.7 L 76.35 192.7" id="path794"/>
      <path style="fill:none;stroke:#000000;stroke-width:1" d="M 76.35 192.7 L 76.35 174.787 L 79.45 174.787 L 79.45 159.938 L 76.35 159.938 L 76.35 141.95 L 79.45 141.95 L 79.45 127.1 L 76.35 127.1 L 76.35 109.112 L 79.45 109.112 L 79.45 94.2625 L 76.35 94.2625 L 76.35 76.35" id="path796"/>
    </g>
    <g id="panel824">
      <path style="fill:none;stroke:#000000;stroke-width:1" d="M 200.8 79.45 L 223.3 79.45 L 223.3 76.35 L 238.45 76.35 L 238.45 79.45 L 260.95 79.45" id="path799"/>
      <path style="fill:none;stroke:#000000;stroke-width:1" d="M 260.95 79.45 L 260.95 94.1125 L 264.05 94.1125 L 264.05 109.263 L 260.95 109.263 L 260.95 126.95 L 264.05 126.95 L 264.05 142.1 L 260.95 142.1 L 260.95 159.787 L 264.05 159.787 L 264.05 174.938 L 260.95 174.938 L 260.95 189.6" id="path801"/>
      <path style="fill:none;stroke:#000000;stroke-width:1" d="M 260.95 189.6 L 238.45 189.6 L 238.45 192.7 L 223.3 192.7 L 223.3 189.6 L 200.8 189.6" id="path803"/>
      <path style="fill:none;stroke:#000000;stroke-width:1" d="M 200.8 189.6 L 200.8 174.938 L 197.7 174.938 L 197.7 159.787 L 200.8 159.787 L 200.8 142.1 L 197.7 142.1 L 197.7 126.95 L 200.8 126.95 L 200.8 109.262 L 197.7 109.262 L 197.7 94.1125 L 200.8 94.1125 L 200.8 79.45" id="path805"/>
    </g>
    <g id="panel3402">
      <path style="fill:none;stroke:#000000;stroke-width:1" d="M 269.05 76.35 L 286.963 76.35 L 286.963 79.45 L 301.813 79.45 L 301.813 76.35 L 319.8 76.35 L 319.8 79.45 L 334.65 79.45 L 334.65 76.35 L 352.638 76.35 L 352.638 79.45 L 367.488 79.45 L 367.488 76.35 L 385.4 76.35" id="path808"/>
      <path style="fill:none;stroke:#000000;stroke-width:1" d="m 385.4,76.35 v 17.9125 h -3.1 v 14.8495 h 6.80417 c 4.25442,5.50511 7.2191,11.15903 0,17.988 H 382.3 v 14.85 h 6.80417 c 5.24823,6.20593 5.93612,12.22944 0,17.988 H 382.3 v 14.849 h 3.1 V 192.7" id="path810" sodipodi:nodetypes="cccccccccccccc"/>
      <path style="fill:none;stroke:#000000;stroke-width:1" d="M 385.4 192.7 L 367.488 192.7 L 367.488 189.6 L 352.637 189.6 L 352.637 192.7 L 334.65 192.7 L 334.65 189.6 L 319.8 189.6 L 319.8 192.7 L 301.812 192.7 L 301.812 189.6 L 286.962 189.6 L 286.962 192.7 L 269.05 192.7" id="path812"/>
      <path style="fill:none;stroke:#000000;stroke-width:1" d="M 269.05 192.7 L 269.05 174.787 L 272.15 174.787 L 272.15 159.938 L 269.05 159.938 L 269.05 141.95 L 272.15 141.95 L 272.15 127.1 L 269.05 127.1 L 269.05 109.112 L 272.15 109.112 L 272.15 94.2625 L 269.05 94.2625 L 269.05 76.35" id="path814"/>
    </g>
    <g id="panel132">
      <path style="fill:none;stroke:#000000;stroke-width:1" d="M 76.35 8.1 L 94.1125 8.1 L 94.1125 5 L 109.263 5 L 109.263 8.1 L 126.95 8.1 L 126.95 5 L 142.1 5 L 142.1 8.1 L 159.787 8.1 L 159.787 5 L 174.938 5 L 174.938 8.1 L 192.7 8.1" id="path817"/>
      <path style="fill:none;stroke:#000000;stroke-width:1" d="M 192.7 8.1 L 192.7 30.75 L 189.6 30.75 L 189.6 45.6 L 192.7 45.6 L 192.7 68.25" id="path819"/>
      <path style="fill:none;stroke:#000000;stroke-width:1" d="M 192.7 68.25 L 174.938 68.25 L 174.938 71.35 L 159.787 71.35 L 159.787 68.25 L 142.1 68.25 L 142.1 71.35 L 126.95 71.35 L 126.95 68.25 L 109.262 68.25 L 109.262 71.35 L 94.1125 71.35 L 94.1125 68.25 L 76.35 68.25" id="path821"/>
      <path style="fill:none;stroke:#000000;stroke-width:1" d="M 76.35 68.25 L 76.35 45.6 L 79.45 45.6 L 79.45 30.75 L 76.35 30.75 L 76.35 8.1" id="path823"/>
    </g>
    <path id="path1281" style="opacity:1;fill:none;fill-rule:nonzero;stroke:url(#linearGradient1983);stroke-width:1.686;stroke-dasharray:none;paint-order:fill markers stroke" d="m 358.84352,156.90285 a 10.957159,10.957159 0 0 0 -10.95716,-10.95716 10.957159,10.957159 0 0 0 -10.95716,10.95716 10.957159,10.957159 0 0 0 10.95716,10.95716 10.957159,10.957159 0 0 0 10.95716,-10.95716 z"/>
    <path id="path5417" style="opacity:1;fill:none;fill-rule:nonzero;stroke:url(#linearGradient5419);stroke-width:1.686;stroke-dasharray:none;paint-order:fill markers stroke" d="m 317.03711,157.91023 a 10.957159,10.957159 0 0 0 -10.95716,-10.95716 10.957159,10.957159 0 0 0 -10.95716,10.95716 10.957159,10.957159 0 0 0 10.95716,10.95716 10.957159,10.957159 0 0 0 10.95716,-10.95716 z"/>
    <g id="g5429">
      <path style="fill:none;stroke:#000000;stroke-width:1" d="M 269.05 76.35 L 286.963 76.35 L 286.963 79.45 L 301.813 79.45 L 301.813 76.35 L 319.8 76.35 L 319.8 79.45 L 334.65 79.45 L 334.65 76.35 L 352.638 76.35 L 352.638 79.45 L 367.488 79.45 L 367.488 76.35 L 385.4 76.35" id="path5421"/>
      <path style="fill:none;stroke:#000000;stroke-width:1" d="m 385.4,76.35 v 17.9125 h -3.1 v 14.8495 h 6.80417 c 4.25442,5.50511 7.2191,11.15903 0,17.988 H 382.3 v 14.85 h 6.80417 c 5.24823,6.20593 5.93612,12.22944 0,17.988 H 382.3 v 14.849 h 3.1 V 192.7" id="path5423" sodipodi:nodetypes="cccccccccccccc"/>
      <path style="fill:none;stroke:#000000;stroke-width:1" d="M 385.4 192.7 L 367.488 192.7 L 367.488 189.6 L 352.637 189.6 L 352.637 192.7 L 334.65 192.7 L 334.65 189.6 L 319.8 189.6 L 319.8 192.7 L 301.812 192.7 L 301.812 189.6 L 286.962 189.6 L 286.962 192.7 L 269.05 192.7" id="path5425"/>
      <path style="fill:none;stroke:#000000;stroke-width:1" d="M 269.05 192.7 L 269.05 174.787 L 272.15 174.787 L 272.15 159.938 L 269.05 159.938 L 269.05 141.95 L 272.15 141.95 L 272.15 127.1 L 269.05 127.1 L 269.05 109.112 L 272.15 109.112 L 272.15 94.2625 L 269.05 94.2625 L 269.05 76.35" id="path5427"/>
    </g>
    <path id="path5431" style="opacity:1;fill:none;fill-rule:nonzero;stroke:url(#linearGradient1983);stroke-width:1.686;stroke-dasharray:none;paint-order:fill markers stroke" d="m 358.84352,156.90285 a 10.957159,10.957159 0 0 0 -10.95716,-10.95716 10.957159,10.957159 0 0 0 -10.95716,10.95716 10.957159,10.957159 0 0 0 10.95716,10.95716 10.957159,10.957159 0 0 0 10.95716,-10.95716 z"/>
    <path id="path5433" style="opacity:1;fill:none;fill-rule:nonzero;stroke:url(#linearGradient5419);stroke-width:1.686;stroke-dasharray:none;paint-order:fill markers stroke" d="m 317.03711,157.91023 a 10.957159,10.957159 0 0 0 -10.95716,-10.95716 10.957159,10.957159 0 0 0 -10.95716,10.95716 10.957159,10.957159 0 0 0 10.95716,10.95716 10.957159,10.957159 0 0 0 10.95716,-10.95716 z"/>
    <path id="path5439" style="opacity:1;fill:none;fill-rule:nonzero;stroke:url(#linearGradient5445);stroke-width:1.686;stroke-dasharray:none;paint-order:fill markers stroke" d="m 358.67562,113.41747 a 10.957159,10.957159 0 0 0 -10.95716,-10.95716 10.957159,10.957159 0 0 0 -10.95716,10.95716 10.957159,10.957159 0 0 0 10.95716,10.95716 10.957159,10.957159 0 0 0 10.95716,-10.95716 z"/>
    <path id="path5441" style="opacity:1;fill:none;fill-rule:nonzero;stroke:url(#linearGradient5443);stroke-width:1.686;stroke-dasharray:none;paint-order:fill markers stroke" d="m 316.86921,114.42485 a 10.957159,10.957159 0 0 0 -10.95716,-10.95716 10.957159,10.957159 0 0 0 -10.95716,10.95716 10.957159,10.957159 0 0 0 10.95716,10.95716 10.957159,10.957159 0 0 0 10.95716,-10.95716 z"/>
    <rect style="opacity:1;fill:none;fill-opacity:1;fill-rule:nonzero;stroke-width:9.88600049;stroke-dasharray:none;stroke-dashoffset:0;paint-order:stroke fill markers;stroke:none;stroke-opacity:1" id="rect5499" width="16.957619" height="10.745422" x="90.664497" y="50.369167"/>
    <rect style="opacity:1;fill:none;fill-opacity:1;fill-rule:nonzero;stroke:url(#linearGradient6759);stroke-width:1.09428;stroke-dasharray:none;stroke-dashoffset:0;stroke-opacity:1;paint-order:fill markers stroke" id="rect5503" width="19.905724" height="11.905723" x="88.853874" y="47.719055"/>
    <path id="path5433-9" style="fill:none;fill-rule:nonzero;stroke:url(#linearGradient6812);stroke-width:0.214319;stroke-dasharray:none;paint-order:fill markers stroke" d="M 167.89284,15.500001 A 1.3928406,1.3928406 0 0 0 166.5,14.10716 a 1.3928406,1.3928406 0 0 0 -1.39284,1.392841 1.3928406,1.3928406 0 0 0 1.39284,1.392841 1.3928406,1.3928406 0 0 0 1.39284,-1.392841 z"/>
    <path id="path5433-9-9" style="fill:none;fill-rule:nonzero;stroke:url(#linearGradient6845);stroke-width:0.21432;stroke-dasharray:none;paint-order:fill markers stroke" d="M 162.89284,15.500003 A 1.3928416,1.3928416 0 0 0 161.5,14.10716 a 1.3928416,1.3928416 0 0 0 -1.39284,1.392843 1.3928416,1.3928416 0 0 0 1.39284,1.39284 1.3928416,1.3928416 0 0 0 1.39284,-1.39284 z"/>
    <path id="path6848" style="fill:none;fill-rule:nonzero;stroke:url(#linearGradient6854);stroke-width:0.214319;stroke-dasharray:none;paint-order:fill markers stroke" d="M 167.89284,20.500001 A 1.3928406,1.3928406 0 0 0 166.5,19.10716 a 1.3928406,1.3928406 0 0 0 -1.39284,1.392841 1.3928406,1.3928406 0 0 0 1.39284,1.392841 1.3928406,1.3928406 0 0 0 1.39284,-1.392841 z"/>
    <path id="path6850" style="fill:none;fill-rule:nonzero;stroke:url(#linearGradient6852);stroke-width:0.214319;stroke-dasharray:none;paint-order:fill markers stroke" d="M 162.89284,20.500001 A 1.3928406,1.3928406 0 0 0 161.5,19.10716 a 1.3928406,1.3928406 0 0 0 -1.39284,1.392841 1.3928406,1.3928406 0 0 0 1.39284,1.392841 1.3928406,1.3928406 0 0 0 1.39284,-1.392841 z"/>
    <path id="path6860" style="fill:none;fill-rule:nonzero;stroke:url(#linearGradient6874);stroke-width:0.214319;stroke-dasharray:none;paint-order:fill markers stroke" d="m 177.63088,15.500001 a 1.3928406,1.3928406 0 0 0 -1.39284,-1.392841 1.3928406,1.3928406 0 0 0 -1.39284,1.392841 1.3928406,1.3928406 0 0 0 1.39284,1.392841 1.3928406,1.3928406 0 0 0 1.39284,-1.392841 z"/>
    <path id="path6862" style="fill:none;fill-rule:nonzero;stroke:url(#linearGradient6872);stroke-width:0.214319;stroke-dasharray:none;paint-order:fill markers stroke" d="m 172.63088,20.500001 a 1.3928406,1.3928406 0 0 0 -1.39284,-1.392841 1.3928406,1.3928406 0 0 0 -1.39284,1.392841 1.3928406,1.3928406 0 0 0 1.39284,1.392841 1.3928406,1.3928406 0 0 0 1.39284,-1.392841 z"/>
    <path id="path6864" style="fill:none;fill-rule:nonzero;stroke:url(#linearGradient6870);stroke-width:0.21432;stroke-dasharray:none;paint-order:fill markers stroke" d="m 172.63088,15.500003 a 1.3928416,1.3928416 0 0 0 -1.39284,-1.392843 1.3928416,1.3928416 0 0 0 -1.39284,1.392843 1.3928416,1.3928416 0 0 0 1.39284,1.39284 1.3928416,1.3928416 0 0 0 1.39284,-1.39284 z"/>
    <path id="path6866" style="fill:none;fill-rule:nonzero;stroke:url(#linearGradient6868);stroke-width:0.214319;stroke-dasharray:none;paint-order:fill markers stroke" d="m 177.63088,20.500001 a 1.3928406,1.3928406 0 0 0 -1.39284,-1.392841 1.3928406,1.3928406 0 0 0 -1.39284,1.392841 1.3928406,1.3928406 0 0 0 1.39284,1.392841 1.3928406,1.3928406 0 0 0 1.39284,-1.392841 z"/>
    <g aria-label="eva" id="text6934" style="font-size:10.5833px;line-height:1.25;font-family:Algerian;-inkscape-font-specification:Algerian;letter-spacing:0px;word-spacing:0px;stroke-width:0.265">
      <path d="m 164.61468,246.27175 -0.0827,0.0982 q -0.5271,0.64595 -0.83716,1.4831 -0.0517,-0.11885 -0.0775,-0.17569 -0.28422,-0.62012 -0.60978,-0.80099 -0.32556,-0.18086 -1.16788,-0.18086 -0.38758,0 -0.93018,0.0258 v 2.37711 h 0.33073 v -2.10322 q 0.39274,-0.0362 0.74931,-0.0362 0.65629,0 0.96634,0.13952 0.31006,0.13953 0.55294,0.5426 -0.0724,-0.0517 -0.10335,-0.0775 -0.41858,-0.33073 -0.60462,-0.39274 -0.18603,-0.062 -0.7338,-0.062 -0.16536,0 -0.58911,0.0207 l -0.10852,0.005 v 1.9637 h 0.95085 l 0.66662,-0.91467 v 2.22725 l -0.66662,-0.86299 h -1.41077 v 2.89903 h 0.33073 v -2.65616 h 1.12138 l 0.13435,0.13436 h -1.12654 v 2.5218 q 1.0542,0 1.49861,-0.14986 0.44442,-0.14986 0.69763,-0.58911 l 0.27389,-0.47025 q 0.0155,-0.031 0.062,-0.11369 0.13436,0.56844 0.33073,0.9095 0.20153,0.34107 0.66145,0.79582 h -5.79291 l 0.78548,-0.59945 v -2.30476 q -0.43408,0.0517 -0.78548,0.26872 l -0.0723,-0.10852 q 0.31522,-0.22738 0.85782,-0.29456 v -0.24287 q -0.0879,-0.0103 -0.12402,-0.0103 -0.5271,0 -0.96118,0.38757 0.23771,-0.82682 1.0852,-0.82682 v -2.20657 l -0.78548,-0.62012 z m 0.24805,0.36173 -0.0362,0.0465 q -0.63045,0.84749 -0.84232,1.4211 l -0.0879,-0.10852 q 0.34623,-0.80098 0.894,-1.46761 z m -1.51928,1.72082 v 2.2841 l -0.1292,-0.0672 v -2.28409 z m 2.13939,4.50618 -0.26871,0.46508 h -5.64305 l -0.0827,-0.13952 h 5.65855 l 0.1757,-0.32556 q -0.74414,-0.6873 -1.04903,-1.46761 l 0.16536,0.062 q 0.28422,0.66146 0.96118,1.32291 z" id="path6993"/>
      <path d="m 172.49014,244.63878 0.0568,0.0568 q -0.67696,0.65113 -1.10587,1.39526 -0.42892,0.74414 -1.02836,2.32544 l -1.50895,3.94806 0.61495,0.53744 h -2.38228 l 0.68213,-0.56328 -1.89135,-5.38466 -0.79582,-0.68213 h 2.56315 l -0.72864,0.72864 1.70532,4.8524 0.20154,-0.48059 -1.52445,-4.29947 0.52709,-0.52193 0.093,0.0982 -0.45992,0.45475 1.43144,4.08759 1.09553,-2.92488 q 0.49093,-1.30224 0.49093,-1.82417 0,-0.5271 -0.38758,-0.90433 l 0.0982,-0.0207 q 1.50378,-0.28939 2.25308,-0.8785 z m 0.27906,0.31523 0.0465,0.11885 q -0.98702,0.76998 -2.03605,3.51399 l -1.45727,3.7982 0.80615,0.94051 h -2.6665 l -0.11368,-0.13952 h 2.47529 l -0.65112,-0.76481 1.48311,-3.87056 0.27905,-0.7338 q 0.37207,-0.95084 0.8785,-1.73632 0.50642,-0.79065 0.95601,-1.12654 z" id="path6995"/>
      <path d="m 176.9343,246.27175 -0.53743,0.60978 0.84749,2.25309 0.20671,-0.11369 -0.76481,-2.03605 0.54777,-0.63045 0.13435,0.0568 -0.52193,0.60461 0.72347,1.92752 q 0.062,-0.0465 0.0724,-0.0568 l 0.17053,-0.14469 q 0.15503,-0.12403 0.19637,-0.1757 0.13436,0.58911 0.41341,1.05419 -0.14986,-0.0103 -0.21704,-0.0103 -0.49093,0 -0.7183,0.15503 l 0.93534,2.5373 0.77514,0.59945 h -2.60965 l 0.71313,-0.59945 -0.5736,-1.50895 q -0.56844,0.57361 -0.87333,1.09037 l -0.11886,-0.031 q 0.30489,-0.50643 0.90951,-1.13171 l 0.0413,-0.0517 -0.0982,-0.22737 q -0.61495,0.51159 -1.01802,1.18855 l -0.093,-0.14986 q -0.26871,-0.42891 -0.68729,-0.97668 l -0.0517,-0.062 q -0.39791,0.88366 -0.39791,1.4366 0,0.32556 0.10852,0.55293 0.11369,0.22221 0.53744,0.74931 0.0362,0.0465 0.11369,0.14469 h -2.79052 l -0.10336,-0.13952 h 2.63033 l -0.0879,-0.10852 q -0.34107,-0.41341 -0.44959,-0.64079 -0.10335,-0.23254 -0.10335,-0.5426 0,-0.5271 0.42891,-1.57096 l -0.22737,-0.23771 q -0.0672,0.16536 -0.17053,0.48576 l -0.17053,0.52709 q -0.13953,0.42375 -0.13953,0.7028 0,0.28939 0.0982,0.48059 0.0982,0.1912 0.41341,0.52193 0.031,0.031 0.093,0.0982 h -2.58381 q 0.73897,-0.38241 1.16788,-1.02836 0.43408,-0.64595 0.85783,-1.99471 l 0.0207,-0.0723 q -0.27389,-0.23255 -0.79065,-0.28422 0.28422,-0.42375 0.43925,-0.88367 0.0724,0.0672 0.0879,0.0827 l 0.23254,0.21704 q 0.11886,0.11368 0.28422,0.23254 l 0.093,-0.22738 -0.062,-0.0517 q -0.25838,-0.22738 -0.43408,-0.3669 l -0.0465,-0.0362 0.0827,-0.11368 q 0.27388,0.18086 0.5271,0.41857 l 0.7028,-1.93269 -0.54777,-0.58911 z m -1.2764,1.65881 -0.56844,1.49861 q 0.0465,0.0517 0.0517,0.062 l 0.21187,0.23771 q 0.17053,0.18604 0.43408,0.57878 l 0.0517,0.0775 q 0.2222,-0.27905 0.52709,-0.55293 z m -0.23254,-0.59945 -0.82166,2.17041 q 0.39274,0.40307 0.67696,0.79581 l 0.23771,0.33073 q 0.005,0.005 0.0517,0.0672 0.0465,-0.0465 0.0517,-0.0568 l 0.0723,-0.0879 q 0.0155,-0.0207 0.0568,-0.0672 -0.36174,-0.55811 -0.84233,-1.00769 l 0.66146,-1.74666 z m 3.03856,1.48311 q 0.11369,0.46509 0.56844,1.27641 -0.11369,-0.0155 -0.12919,-0.0155 l -0.41858,-0.0362 q -0.28422,-0.0258 -0.41341,-0.0258 -0.0207,0 -0.10335,0.005 l 0.86299,2.28926 1.15238,1.01802 h -2.99205 l -0.0982,-0.13952 h 2.74401 l -0.93017,-0.82166 -0.91984,-2.43395 q 0.1757,-0.0465 0.40308,-0.0465 0.27905,0 0.62011,0.0465 l -0.062,-0.11369 q -0.33073,-0.60978 -0.44442,-1.1007 z" id="path6997"/>
    </g>
    <path id="path7191" style="fill:none;fill-rule:nonzero;stroke:url(#linearGradient7205);stroke-width:0.214319;stroke-dasharray:none;paint-order:fill markers stroke" d="M 167.89284,24.911143 A 1.3928406,1.3928406 0 0 0 166.5,23.518302 a 1.3928406,1.3928406 0 0 0 -1.39284,1.392841 1.3928406,1.3928406 0 0 0 1.39284,1.392841 1.3928406,1.3928406 0 0 0 1.39284,-1.392841 z"/>
    <path id="path7193" style="fill:none;fill-rule:nonzero;stroke:url(#linearGradient7203);stroke-width:0.214319;stroke-dasharray:none;paint-order:fill markers stroke" d="M 162.89284,24.911143 A 1.3928406,1.3928406 0 0 0 161.5,23.518302 a 1.3928406,1.3928406 0 0 0 -1.39284,1.392841 1.3928406,1.3928406 0 0 0 1.39284,1.392841 1.3928406,1.3928406 0 0 0 1.39284,-1.392841 z"/>
    <path id="path7195" style="fill:none;fill-rule:nonzero;stroke:url(#linearGradient7201);stroke-width:0.214319;stroke-dasharray:none;paint-order:fill markers stroke" d="m 172.63088,24.911143 a 1.3928406,1.3928406 0 0 0 -1.39284,-1.392841 1.3928406,1.3928406 0 0 0 -1.39284,1.392841 1.3928406,1.3928406 0 0 0 1.39284,1.392841 1.3928406,1.3928406 0 0 0 1.39284,-1.392841 z"/>
    <path id="path7197" style="fill:none;fill-rule:nonzero;stroke:url(#linearGradient7199);stroke-width:0.214319;stroke-dasharray:none;paint-order:fill markers stroke" d="m 177.63088,24.911143 a 1.3928406,1.3928406 0 0 0 -1.39284,-1.392841 1.3928406,1.3928406 0 0 0 -1.39284,1.392841 1.3928406,1.3928406 0 0 0 1.39284,1.392841 1.3928406,1.3928406 0 0 0 1.39284,-1.392841 z"/>
  </g>
</svg>